<?xml version="1.0" standalone="no"?>
<!DOCTYPE svg PUBLIC "-//W3C//DTD SVG 20010904//EN"
 "http://www.w3.org/TR/2001/REC-SVG-20010904/DTD/svg10.dtd">
<svg version="1.0" xmlns="http://www.w3.org/2000/svg"
 width="64.000000pt" height="92.000000pt" viewBox="0 0 64.000000 92.000000"
 preserveAspectRatio="xMidYMid meet">
<metadata>
Created by potrace 1.16, written by Peter Selinger 2001-2019
</metadata>
<g transform="translate(0.000000,92.000000) scale(0.100000,-0.100000)"
fill="#000000" stroke="none">
<path d="M0 460 l0 -460 320 0 320 0 0 54 c0 30 -4 58 -10 61 -6 4 -10 130
-10 345 0 215 4 341 10 345 6 3 10 31 10 61 l0 54 -320 0 -320 0 0 -460z m564
344 c21 -21 21 -107 0 -128 -12 -13 -38 -16 -120 -16 l-104 0 0 -60 0 -60 88
0 c55 0 92 -4 100 -12 16 -16 16 -120 0 -136 -8 -8 -45 -12 -100 -12 l-88 0 0
-60 0 -60 108 0 c71 0 112 -4 120 -12 17 -17 16 -123 -2 -137 -9 -8 -81 -11
-237 -9 l-224 3 -3 345 c-1 190 0 351 3 357 3 10 57 13 224 13 186 0 222 -2
235 -16z"/>
</g>
</svg>
